<?xml version="1.0" encoding="utf-8"?>
<!-- Generator: Adobe Illustrator 19.2.0, SVG Export Plug-In . SVG Version: 6.00 Build 0)  -->
<svg version="1.1" id="Layer_1" xmlns="http://www.w3.org/2000/svg" xmlns:xlink="http://www.w3.org/1999/xlink" x="0px" y="0px"
	 viewBox="0 0 400 150" style="enable-background:new 0 0 400 150;" xml:space="preserve">
<style type="text/css">
	.st0{fill:#6E2B95;}
</style>
<g>
	<path class="st0" d="M30.4,3.4c0-1.5,0.8-2.4,2-2.4c1.2,0,2,0.9,2,2.4v12.1c0,1.6-0.8,2.5-2,2.5c-0.7,0-1.4-0.5-1.7-1
		c-0.1-0.4-0.1-0.4-0.7-3.8c-0.9-5.6-6-9.5-12.5-9.5c-6.6,0-11.3,3.9-11.3,9.5c0,4.4,2.4,6.6,9.8,9.1l7.7,2.6
		c8.5,2.9,11.8,6.5,11.8,13.1c0,8.3-6.3,13.9-15.7,13.9c-7.2,0-12-2.7-14.3-8.1v5c0,1.5-0.8,2.4-2,2.4c-1.3,0-2-0.9-2-2.4V35.9
		c0-1.6,0.8-2.5,2-2.5c1.4,0,2,0.8,2.1,2.9c0.1,2.4,1.7,6.2,3.4,8.1c2.2,2.5,5.8,3.9,9.8,3.9c7.2,0,12-4,12-10.1c0-3-1.2-5.3-3.7-7
		c-1.2-0.8-2.6-1.4-5.6-2.5l-6.5-2.2c-5.2-1.8-7.6-2.9-9.5-4.4c-2.6-2.2-4-5.1-4-8.7C1.5,5.6,7.8,0.2,17,0.2c6.5,0,11,2.5,13.4,7.4
		V3.4z"/>
	<path class="st0" d="M74.2,33.6c0,11.3-6.8,18.5-17.3,18.5c-10.7,0-17.6-7.4-17.6-19.2c0-10.6,7.1-17.8,17.6-17.8
		C67.5,15.2,74.2,22.3,74.2,33.6z M43.5,33.1c0,9.8,5,15.8,13.1,15.8C64.9,49,70,43.1,70,33.9c0-9.6-5-15.5-13.1-15.5
		C48.9,18.3,43.5,24.3,43.5,33.1z"/>
	<path class="st0" d="M85.8,46.5c0,1,0.4,1.5,1.5,1.5h4.1c1.2,0,1.9,0.6,1.9,1.6c0,0.9-0.7,1.5-1.9,1.5H77.2c-1.2,0-1.9-0.6-1.9-1.6
		c0-0.9,0.8-1.5,1.9-1.5h3c1.1,0,1.5-0.5,1.5-1.5V20.8c0-1-0.4-1.5-1.5-1.5h-3.5c-1.2,0-1.9-0.6-1.9-1.6c0-0.9,0.7-1.5,1.9-1.5h3.5
		c1.1,0,1.5-0.4,1.5-1.5v-2.3c0-4.6,1.1-7.8,3.4-9.8C86.9,1,89.9,0,92.7,0c1.7,0,4.4,0.4,5.2,0.9c0.3,0.2,0.8,1,0.8,1.4
		c0,0.6-0.8,1.5-1.3,1.5c-0.2,0-0.3,0-1-0.2c-0.9-0.2-2.6-0.5-3.3-0.5c-2.2,0-4.5,1.2-5.9,2.9c-1.1,1.4-1.4,3.1-1.4,6.6v1.9
		c0,1.1,0.4,1.5,1.5,1.5h5.2c1.3,0,1.9,0.6,1.9,1.6c0,0.9-0.7,1.5-1.9,1.5h-5.2c-1.1,0-1.5,0.5-1.5,1.5L85.8,46.5
		C85.7,46.5,85.8,46.5,85.8,46.5z"/>
	<path class="st0" d="M108.3,41.5c0,3.7,0.2,4.7,1,5.8c0.7,1,2.2,1.7,3.6,1.7c2.1,0,3.5-1.1,4.2-3.2c0.3-1,0.4-1,0.5-2.9
		c0-0.9,0.8-1.6,1.7-1.6c1.1,0,1.7,0.8,1.7,2.2c0,1.4-0.5,3.3-1.3,4.8c-1.4,2.5-3.8,3.8-7.1,3.8c-5.7,0-8.3-3.4-8.3-10.7V20.8
		c0-1-0.4-1.5-1.5-1.5H99c-1.2,0-1.9-0.6-1.9-1.6c0-0.9,0.8-1.5,1.9-1.5h3.8c1.1,0,1.5-0.4,1.5-1.5V10c0-1.6,0.8-2.5,2-2.5
		s2,0.9,2,2.5v4.7c0,1.1,0.4,1.5,1.5,1.5h8.3c1.2,0,1.9,0.5,1.9,1.6c0,1-0.7,1.5-1.9,1.5h-8.3c-1.1,0-1.5,0.5-1.5,1.5V41.5z"/>
	<path class="st0" d="M176.8,21.2c0.1-0.2,0.1-0.5,0.1-0.7c0-0.8-0.6-1.2-1.5-1.2h-2.9c-1.2,0-1.9-0.6-1.9-1.6
		c0-0.9,0.7-1.5,1.9-1.5h11.5c1.2,0,1.9,0.5,1.9,1.6c0,1-0.7,1.5-1.9,1.5h-1.6c-0.9,0-1.2,0.2-1.5,1.1l-9.8,29.3
		c-0.4,1-0.8,1.3-1.9,1.3h-2.5c-1.1,0-1.5-0.3-1.9-1.3l-7.9-22.5c-1.1-3-1.8-4.7-1.9-5.3c-0.5-1.5-0.6-1.6-0.9-1.6
		c-0.4,0-0.8,0.8-1.2,2.5c-0.4,1.4-0.9,2.9-1.5,4.5l-8,22.4c-0.4,1-0.8,1.3-1.8,1.3h-2.4c-1.1,0-1.5-0.3-1.9-1.3l-10.1-29.3
		c-0.3-0.9-0.6-1.1-1.5-1.1h-1.7c-1.2,0-1.9-0.6-1.9-1.6c0-0.9,0.7-1.5,1.9-1.5h11.9c1.2,0,1.9,0.5,1.9,1.6c0,0.9-0.7,1.5-1.9,1.5
		h-2.8c-0.9,0-1.5,0.5-1.5,1.2c0,0.2,0,0.5,0.1,0.8l8.8,26.7l10.4-30.4c0.4-1,0.8-1.4,1.9-1.4h2.7c1.1,0,1.5,0.3,1.9,1.4L168,48
		L176.8,21.2z"/>
	<path class="st0" d="M212.2,43.7c-2.6,5.9-6.5,8.4-13.4,8.4c-7.8,0-12.6-4-12.6-10.6c0-4.4,2.2-7.8,6.2-9.6
		c2.7-1.2,6.7-1.7,12.9-1.7c1.4,0,2.9,0,4.1,0.1c0.5,0.1,1.1,0.1,1.4,0.1c0.9,0,1.5-0.5,1.5-1.3v-0.2c0-4.9-0.4-6.5-2.5-8.3
		c-1.7-1.6-4.1-2.2-7.6-2.2c-6,0-9.6,2.5-10.3,7.1c-0.1,1.1-1,2-2.1,2c-1.2,0-2.1-1-2.1-2.2c0-3.1,2.6-6.8,6-8.4
		c2.2-1.1,5.1-1.6,8.6-1.6c5.3,0,9,1.3,11.3,4c2,2.2,2.6,4.6,2.6,9.6v17.7c0,1,0.4,1.5,1.5,1.5h2.6c1.2,0,1.9,0.6,1.9,1.6
		c0,0.9-0.7,1.5-1.9,1.5H214c-1.3,0-1.8-0.5-1.8-1.8L212.2,43.7L212.2,43.7z M190.4,41.4c0,4.8,3.4,7.6,9.2,7.6
		c4.7,0,8.3-1.8,10.4-5.2c1.1-1.7,2.1-6.4,2.1-9.2c0-0.5-0.2-0.9-0.7-1.1c-0.3-0.2-3.6-0.3-6.7-0.3C195,33.1,190.4,35.8,190.4,41.4z
		"/>
	<path class="st0" d="M235.2,23.4c0.8-2.5,1.4-3.8,2.9-5.1c2-1.9,5.2-3.1,8.3-3.1c1.9,0,3.1,0.8,3.1,2c0,0.9-0.4,1.4-1.1,1.4
		c-0.2,0-0.5,0-1-0.1c-0.5-0.1-0.8-0.1-1.1-0.1c-1.3,0-3.7,0.6-5.3,1.3c-3.8,1.7-5.8,5.9-5.8,11.9v15c0,1,0.4,1.5,1.5,1.5h4.4
		c1.2,0,1.9,0.6,1.9,1.6c0,0.9-0.7,1.5-1.9,1.5h-14.5c-1.2,0-1.9-0.6-1.9-1.6c0-0.9,0.8-1.5,1.9-1.5h3.1c1.1,0,1.5-0.5,1.5-1.5V20.8
		c0-1-0.4-1.5-1.5-1.5h-3.1c-1.2,0-1.9-0.6-1.9-1.6c0-0.9,0.8-1.5,1.9-1.5h6.8c1.3,0,1.8,0.5,1.8,1.8L235.2,23.4
		C235.2,23.3,235.2,23.3,235.2,23.4z"/>
	<path class="st0" d="M255.3,34.4c-1,0-1.5,0.5-1.5,1.4c0,1.7,0.5,3.8,1.3,5.6c2.2,5,6.5,7.6,12.4,7.6c6,0,10.2-2.8,11.6-7.9
		c0.4-1.5,0.8-2,1.9-2c1,0,1.7,0.8,1.7,2c0,1.3-1.2,3.8-2.8,5.8c-2.7,3.5-7,5.3-12.8,5.3c-10.9,0-17.4-6.9-17.4-18.5
		c0-11.5,6.5-18.5,17.3-18.5c7.5,0,12.8,3.5,15,9.8c0.8,2.2,1.4,5.7,1.4,7.7c0,1.2-0.6,1.7-1.8,1.7L255.3,34.4L255.3,34.4
		L255.3,34.4z M277.7,31.3c0.9,0,1.4-0.4,1.4-1.2c0-2.9-1.5-6.3-3.8-8.6c-2-2-5-3.1-8.6-3.1c-3.8,0-7,1.3-9,3.5
		c-2.1,2.2-3.7,5.9-3.7,8.3c0,0.8,0.4,1.1,1.4,1.1C255.4,31.3,277.7,31.3,277.7,31.3z"/>
	<path class="st0" d="M48.6,108c0.3,0.8,0.6,1.1,1.5,1.1h1.7c1.3,0,2.1,0.6,2.1,1.7c0,1.1-0.8,1.7-2.1,1.7H38.7c-1.3,0-2-0.6-2-1.7
		c0-1.1,0.8-1.7,2-1.7h3.5c0.9,0,1.5-0.4,1.5-1.1c0-0.2-0.1-0.5-0.2-0.8l-4.7-11.5c-0.3-0.8-0.6-1.1-1.5-1.1H16.3
		c-0.9,0-1.2,0.2-1.5,1.1l-4.7,11.5c-0.1,0.3-0.1,0.5-0.1,0.8c0,0.7,0.6,1.1,1.5,1.1h3.4c1.3,0,2.1,0.6,2.1,1.7
		c0,1.1-0.8,1.7-2.1,1.7H2c-1.3,0-2-0.6-2-1.7c0-1.1,0.8-1.7,2-1.7h1.7c0.9,0,1.2-0.2,1.6-1.1l18.3-44.4c0.5-1,0.8-1.3,1.9-1.3h2.9
		c1,0,1.4,0.2,1.8,1.3L48.6,108z M34.5,91.3c0.9,0,1.5-0.4,1.5-1.1c0-0.3-0.1-0.5-0.2-0.8L28,69.1c-0.2-0.7-0.7-1.1-1.2-1.1
		c-0.6,0-1,0.4-1.3,1.1l-7.8,20.3c-0.1,0.3-0.2,0.6-0.2,0.8c0,0.8,0.6,1.2,1.6,1.2L34.5,91.3L34.5,91.3z"/>
	<path class="st0" d="M66.1,84.7c0.8-2.6,1.4-3.8,2.9-5.1c2-1.9,5.2-3.1,8.3-3.1c1.9,0,3.1,0.8,3.1,1.9c0,0.9-0.4,1.4-1.1,1.4
		c-0.2,0-0.5,0-1-0.1c-0.5-0.2-0.8-0.2-1.1-0.2c-1.3,0-3.7,0.6-5.3,1.3c-3.8,1.7-5.8,5.9-5.8,11.9v15c0,1.1,0.4,1.5,1.5,1.5h4.4
		c1.2,0,1.9,0.6,1.9,1.6c0,0.9-0.7,1.5-1.9,1.5H57.4c-1.2,0-2-0.6-2-1.6c0-0.9,0.8-1.5,2-1.5h3.1c1,0,1.5-0.4,1.5-1.5V82.2
		c0-1.1-0.5-1.5-1.5-1.5h-3.1c-1.2,0-2-0.6-2-1.6c0-0.9,0.8-1.5,2-1.5h6.8c1.3,0,1.8,0.5,1.8,1.8V84.7z"/>
	<path class="st0" d="M108.6,79.6c0-1.3,0.6-2,1.7-2s1.7,0.8,1.7,2v9c0,1.3-0.7,2.1-1.7,2.1s-1.7-0.7-1.8-1.9c-0.7-5.6-5-9.2-11-9.2
		c-7.6,0-12.7,6.1-12.7,15.2c0,9.2,5.1,15.4,12.8,15.4c5.4,0,9.7-3,10.7-7.5c0.5-2.4,0.8-2.8,2-2.8c1.1,0,1.8,0.8,1.8,1.9
		c0,1.3-1.1,4-2.5,6c-2.3,3.5-6.7,5.5-12.2,5.5c-10.2,0-16.9-7.3-16.9-18.6c0-11.1,6.5-18.4,16.5-18.4c5.6,0,10.1,2.7,11.6,7
		L108.6,79.6L108.6,79.6z"/>
	<path class="st0" d="M124.6,84c1.9-4.9,6.2-7.4,12.2-7.4c8,0,12.4,4.1,12.4,11.8v19.5c0,1.1,0.4,1.5,1.5,1.5h3.1
		c1.3,0,1.9,0.6,1.9,1.6c0,0.9-0.8,1.5-1.9,1.5h-13.2c-1.2,0-1.9-0.6-1.9-1.6c0-0.9,0.8-1.5,1.9-1.5h3.1c1.1,0,1.5-0.4,1.5-1.5V89.7
		c0-6.8-2.9-9.9-9.2-9.9c-6.9,0-11.3,4.8-11.3,12.2v15.8c0,1.1,0.4,1.5,1.5,1.5h3.1c1.3,0,1.9,0.6,1.9,1.6c0,0.9-0.7,1.5-1.9,1.5
		H116c-1.2,0-1.9-0.6-1.9-1.6c0-0.9,0.8-1.5,1.9-1.5h3.1c1.1,0,1.5-0.4,1.5-1.5V67c0-1.1-0.4-1.6-1.5-1.6H116
		c-1.2,0-1.9-0.6-1.9-1.6c0-0.9,0.8-1.5,1.9-1.5h6.8c1.3,0,1.8,0.5,1.8,1.8L124.6,84L124.6,84z"/>
	<path class="st0" d="M168.5,107.9c0,1.1,0.4,1.5,1.5,1.5h2.6c1.2,0,1.9,0.6,1.9,1.6c0,0.9-0.7,1.5-1.9,1.5h-12.8
		c-1.2,0-1.9-0.6-1.9-1.6c0-0.9,0.8-1.5,1.9-1.5h3.1c1.1,0,1.5-0.4,1.5-1.5V82.2c0-1.1-0.4-1.5-1.5-1.5h-3.1c-1.2,0-1.9-0.6-1.9-1.6
		c0-0.9,0.8-1.5,1.9-1.5h6.8c1.3,0,1.8,0.5,1.8,1.8L168.5,107.9L168.5,107.9z M169.1,66.6c0,1.7-1.4,3-3,3s-3.1-1.4-3.1-3.1
		s1.4-3,3-3C167.8,63.5,169.1,64.8,169.1,66.6z"/>
	<path class="st0" d="M184.2,102.8c0,3.7,0.1,4.7,1,5.8c0.7,1.1,2.2,1.7,3.6,1.7c2.1,0,3.5-1.1,4.2-3.2c0.3-1,0.4-1.1,0.5-2.9
		c0-0.9,0.8-1.6,1.6-1.6c1.1,0,1.7,0.8,1.7,2.2c0,1.4-0.5,3.3-1.4,4.8c-1.4,2.5-3.8,3.8-7.1,3.8c-5.7,0-8.3-3.4-8.3-10.7V82.2
		c0-1.1-0.4-1.5-1.5-1.5h-3.8c-1.2,0-1.9-0.6-1.9-1.6c0-0.9,0.8-1.5,1.9-1.5h3.8c1.1,0,1.5-0.4,1.5-1.5v-4.7c0-1.6,0.8-2.5,2-2.5
		s2,0.9,2,2.5v4.7c0,1.1,0.4,1.5,1.5,1.5h8.2c1.2,0,1.9,0.5,1.9,1.6c0,1-0.7,1.5-1.9,1.5h-8.3c-1.1,0-1.5,0.4-1.5,1.5V102.8z"/>
	<path class="st0" d="M205.1,95.8c-1,0-1.5,0.4-1.5,1.4c0,1.7,0.5,3.8,1.3,5.6c2.2,5,6.5,7.6,12.4,7.6c6,0,10.2-2.8,11.6-7.9
		c0.4-1.5,0.8-2,1.9-2s1.7,0.8,1.7,2c0,1.3-1.2,3.8-2.8,5.8c-2.7,3.5-7,5.3-12.8,5.3c-10.9,0-17.4-6.9-17.4-18.5
		c0-11.5,6.5-18.5,17.3-18.5c7.5,0,12.8,3.5,15,9.8c0.8,2.2,1.4,5.7,1.4,7.7c0,1.2-0.6,1.7-1.8,1.7L205.1,95.8L205.1,95.8z
		 M227.5,92.7c0.9,0,1.4-0.4,1.4-1.2c0-2.9-1.5-6.3-3.8-8.6c-2-2-5-3.2-8.6-3.2c-3.8,0-7,1.3-9,3.5c-2.1,2.2-3.7,5.9-3.7,8.3
		c0,0.8,0.4,1.1,1.4,1.1H227.5z"/>
	<path class="st0" d="M265.1,79.6c0-1.3,0.6-2,1.6-2s1.6,0.8,1.6,2v9c0,1.3-0.7,2.1-1.7,2.1c-1,0-1.6-0.7-1.8-1.9
		c-0.7-5.6-5-9.2-11-9.2c-7.6,0-12.7,6.1-12.7,15.2c0,9.2,5.1,15.4,12.8,15.4c5.4,0,9.7-3,10.7-7.5c0.5-2.4,0.8-2.8,2-2.8
		c1,0,1.8,0.8,1.8,1.9c0,1.3-1.1,4-2.5,6c-2.3,3.5-6.7,5.5-12.2,5.5c-10.2,0-16.9-7.3-16.9-18.6c0-11.1,6.5-18.4,16.5-18.4
		c5.6,0,10.1,2.7,11.6,7L265.1,79.6L265.1,79.6z"/>
	<path class="st0" d="M282.9,102.8c0,3.7,0.1,4.7,1,5.8c0.7,1.1,2.2,1.7,3.6,1.7c2.1,0,3.5-1.1,4.2-3.2c0.3-1,0.4-1.1,0.5-2.9
		c0-0.9,0.8-1.6,1.6-1.6c1.1,0,1.7,0.8,1.7,2.2c0,1.4-0.5,3.3-1.4,4.8c-1.4,2.5-3.8,3.8-7.1,3.8c-5.7,0-8.3-3.4-8.3-10.7V82.2
		c0-1.1-0.5-1.5-1.5-1.5h-3.8c-1.2,0-2-0.6-2-1.6c0-0.9,0.8-1.5,2-1.5h3.8c1,0,1.5-0.4,1.5-1.5v-4.7c0-1.6,0.8-2.5,2-2.5
		s2,0.9,2,2.5v4.7c0,1.1,0.5,1.5,1.5,1.5h8.3c1.2,0,1.9,0.5,1.9,1.6c0,1-0.7,1.5-1.9,1.5h-8.3c-1,0-1.5,0.4-1.5,1.5L282.9,102.8
		L282.9,102.8z"/>
	<path class="st0" d="M328.4,106.1c-1.6,4.9-5.7,7.4-12.4,7.4c-4.1,0-7.1-1.1-9.3-3.4c-2.3-2.4-3-4.8-3-10.3V82.2
		c0-1.1-0.5-1.5-1.5-1.5h-3.1c-1.2,0-2-0.6-2-1.6c0-0.9,0.8-1.5,2-1.5h6.8c1.3,0,1.8,0.5,1.8,1.8v20.4c0,7.1,3,10.5,9.4,10.5
		c7.4,0,11.3-4.7,11.3-13.9V82.2c0-1.1-0.5-1.5-1.5-1.5h-3.1c-1.2,0-1.9-0.6-1.9-1.6c0-0.9,0.7-1.5,1.9-1.5h6.9
		c1.3,0,1.8,0.5,1.8,1.8v28.5c0,1.1,0.5,1.5,1.5,1.5h3.1c1.3,0,2,0.6,2,1.6c0,0.9-0.8,1.5-2,1.5h-6.8c-1.3,0-1.8-0.5-1.8-1.8
		L328.4,106.1L328.4,106.1z"/>
	<path class="st0" d="M351.9,84.7c0.8-2.6,1.4-3.8,2.9-5.1c2-1.9,5.2-3.1,8.3-3.1c2,0,3.1,0.8,3.1,1.9c0,0.9-0.5,1.4-1.1,1.4
		c-0.2,0-0.5,0-1-0.1c-0.5-0.2-0.8-0.2-1.1-0.2c-1.3,0-3.7,0.6-5.3,1.3c-3.8,1.7-5.8,5.9-5.8,11.9v15c0,1.1,0.5,1.5,1.5,1.5h4.4
		c1.2,0,1.9,0.6,1.9,1.6c0,0.9-0.7,1.5-1.9,1.5h-14.5c-1.2,0-2-0.6-2-1.6c0-0.9,0.8-1.5,2-1.5h3.1c1,0,1.5-0.4,1.5-1.5V82.2
		c0-1.1-0.5-1.5-1.5-1.5h-3.1c-1.2,0-2-0.6-2-1.6c0-0.9,0.8-1.5,2-1.5h6.8c1.3,0,1.8,0.5,1.8,1.8L351.9,84.7L351.9,84.7z"/>
	<path class="st0" d="M372,95.8c-1,0-1.5,0.4-1.5,1.4c0,1.7,0.5,3.8,1.3,5.6c2.2,5,6.5,7.6,12.4,7.6c6,0,10.2-2.8,11.6-7.9
		c0.4-1.5,0.8-2,1.9-2c1,0,1.7,0.8,1.7,2c0,1.3-1.2,3.8-2.8,5.8c-2.7,3.5-7,5.3-12.8,5.3c-10.9,0-17.4-6.9-17.4-18.5
		c0-11.5,6.5-18.5,17.3-18.5c7.5,0,12.8,3.5,15,9.8c0.8,2.2,1.4,5.7,1.4,7.7c0,1.2-0.6,1.7-1.8,1.7L372,95.8L372,95.8z M394.4,92.7
		c0.9,0,1.4-0.4,1.4-1.2c0-2.9-1.5-6.3-3.8-8.6c-2-2-5-3.2-8.6-3.2c-3.8,0-7,1.3-9,3.5c-2.1,2.2-3.7,5.9-3.7,8.3
		c0,0.8,0.5,1.1,1.4,1.1H394.4z"/>
</g>
<g>
	<path d="M191.4,141.6V141c0-6.1,3.6-8.4,8.1-8.4c1.9,0,3.3,0.3,4.3,0.8v2.8c-1.2-0.4-2.3-0.7-3.8-0.7c-2.8,0-4.6,1.5-4.6,5.2v0.8
		c0,3.6,1.3,5.6,4.6,5.6c1.9,0,3-0.5,3.9-0.9v2.8c-1.1,0.6-2.6,1-4.7,1C194.4,150,191.4,147.3,191.4,141.6z"/>
	<path d="M211.7,141.6V141c0-5.7,3.4-8.5,7.9-8.5c4.5,0,7.8,2.7,7.8,8.4v0.5c0,5.7-3.4,8.5-7.9,8.5
		C214.9,150,211.7,147.3,211.7,141.6z M223.5,141.9V141c0-3.7-1.1-5.6-4-5.6c-2.6,0-3.9,2-3.9,5.4v0.8c0,3.7,1.2,5.7,4,5.7
		C222.2,147.2,223.5,145.2,223.5,141.9z"/>
	<path d="M236.4,132.9h4.1l6.4,10.9h0.1v-10.9h3.2v16.8h-3.6l-6.8-11.8h-0.1v11.8h-3.2L236.4,132.9L236.4,132.9z"/>
	<path d="M259.8,132.9h10.9v2.8h-7.1v4.6h5.6v2.8h-5.6v6.8h-3.7L259.8,132.9L259.8,132.9z"/>
	<path d="M279.3,132.9h11v2.8H283v4.1h5.7v2.7H283v4.5h7.5v2.8h-11.2L279.3,132.9L279.3,132.9z"/>
	<path d="M299.5,132.9h6.2c4,0,6.1,1.6,6.1,5.1c0,2.4-1.1,3.6-2.9,4.3v0.1l4,7.4h-4l-3.5-6.5h-2.2v6.5h-3.7L299.5,132.9L299.5,132.9
		z M305.2,140.8c2,0,2.8-0.9,2.8-2.7c0-1.8-0.8-2.5-2.8-2.5h-2.1v5.2H305.2z"/>
	<path d="M321.2,132.9h11v2.8h-7.3v4.1h5.7v2.7h-5.7v4.5h7.5v2.8h-11.2V132.9z"/>
	<path d="M341.4,132.9h4.1l6.4,10.9h0.1v-10.9h3.2v16.8h-3.6l-6.8-11.8h-0.1v11.8h-3.2L341.4,132.9L341.4,132.9z"/>
	<path d="M364.1,141.6V141c0-6.1,3.6-8.4,8.1-8.4c2,0,3.3,0.3,4.3,0.8v2.8c-1.2-0.4-2.3-0.7-3.8-0.7c-2.8,0-4.6,1.5-4.6,5.2v0.8
		c0,3.6,1.3,5.6,4.6,5.6c1.9,0,3-0.5,3.9-0.9v2.8c-1.1,0.6-2.6,1-4.7,1C367.1,150,364.1,147.3,364.1,141.6z"/>
	<path d="M385.5,132.9h11v2.8h-7.3v4.1h5.7v2.7h-5.7v4.5h7.5v2.8h-11.2L385.5,132.9L385.5,132.9z"/>
</g>
</svg>
